<?xml version="1.0" encoding="UTF-8" standalone="no"?>
<svg xmlns:inkscape="http://www.inkscape.org/namespaces/inkscape" xmlns:sodipodi="http://sodipodi.sourceforge.net/DTD/sodipodi-0.dtd" xmlns="http://www.w3.org/2000/svg" xmlns:svg="http://www.w3.org/2000/svg" width="153.16499mm" height="157.17288mm" viewBox="0 0 160.85322 165.06228" version="1.1" id="svg5">
  <defs id="defs2"></defs>
  <g id="layer1" transform="translate(-27.573273,-69.047253)">
    <g id="g2170" transform="translate(2.9998869,3.0783908)">
      <path id="path111" style="fill:#066372;fill-opacity:1;stroke-width:0.264583" d="M 105,65.968862 A 80.426666,82.531281 0 0 0 24.573386,148.50026 80.426666,82.531281 0 0 0 105,231.03114 80.426666,82.531281 0 0 0 185.25763,153.1346 59.376431,61.640579 0 0 1 126.05039,210.14043 59.376431,61.640579 0 0 1 66.673659,148.50026 59.376431,61.640579 0 0 1 126.05039,86.859577 59.376431,61.640579 0 0 1 185.40698,146.93136 80.426666,82.531281 0 0 0 105,65.968862 Z m 80.25763,87.165738 a 59.376431,61.640579 0 0 0 0.16898,-4.63434 80.426666,82.531281 0 0 1 -0.16898,4.63434 z"></path>
      <path id="path1152" style="fill:#fb7e01;fill-opacity:1;stroke-width:0.294812" d="m 127.06253,100.02647 a 48.144745,48.473419 0 0 0 -27.346653,8.59689 39.78141,40.457367 0 0 1 6.682793,-0.58084 39.78141,40.457367 0 0 1 39.78155,40.45748 39.78141,40.457367 0 0 1 -39.78155,40.45748 39.78141,40.457367 0 0 1 -6.682793,-0.58084 48.144745,48.473419 0 0 0 27.346653,8.59689 A 48.144745,48.473419 0 0 0 175.20739,148.5 48.144745,48.473419 0 0 0 127.06253,100.02647 Z"></path>
    </g>
  </g>
</svg>
