<?xml version="1.0" encoding="UTF-8" standalone="no"?>
<svg
   width="153.16499mm"
   height="157.17288mm"
   viewBox="0 0 160.85322 165.06228"
   version="1.1"
   id="svg5"
   sodipodi:docname="logo2.svg"
   inkscape:version="1.2.2 (b0a8486541, 2022-12-01)"
   xmlns:inkscape="http://www.inkscape.org/namespaces/inkscape"
   xmlns:sodipodi="http://sodipodi.sourceforge.net/DTD/sodipodi-0.dtd"
   xmlns="http://www.w3.org/2000/svg"
   xmlns:svg="http://www.w3.org/2000/svg">
  <sodipodi:namedview
     id="namedview136"
     pagecolor="#ffffff"
     bordercolor="#000000"
     borderopacity="0.25"
     inkscape:showpageshadow="2"
     inkscape:pageopacity="0.0"
     inkscape:pagecheckerboard="0"
     inkscape:deskcolor="#d1d1d1"
     inkscape:document-units="mm"
     showgrid="false"
     inkscape:zoom="1.1218925"
     inkscape:cx="-131.0286"
     inkscape:cy="460.38279"
     inkscape:window-width="3840"
     inkscape:window-height="2091"
     inkscape:window-x="1920"
     inkscape:window-y="32"
     inkscape:window-maximized="1"
     inkscape:current-layer="svg5" />
  <defs
     id="defs2" />
  <path
     id="path111"
     style="fill:#066372;fill-opacity:1;stroke-width:0.264583"
     d="M 80.426614,0 A 80.426666,82.531281 0 0 0 0,82.531398 80.426666,82.531281 0 0 0 80.426614,165.06228 80.426666,82.531281 0 0 0 160.68424,87.165738 59.376431,61.640579 0 0 1 101.477,144.17157 59.376431,61.640579 0 0 1 42.100273,82.531398 59.376431,61.640579 0 0 1 101.477,20.890715 59.376431,61.640579 0 0 1 160.83359,80.962498 80.426666,82.531281 0 0 0 80.426614,0 Z m 80.257626,87.165738 a 59.376431,61.640579 0 0 0 0.16898,-4.63434 80.426666,82.531281 0 0 1 -0.16898,4.63434 z" />
  <path
     id="path1152"
     style="fill:#fb7e01;fill-opacity:1;stroke-width:0.339997"
     d="m 100.89691,26.62815 a 55.523813,55.902863 0 0 0 -31.538003,9.914521 45.878644,46.658203 0 0 1 7.707054,-0.669864 45.878644,46.658203 0 0 1 45.878779,46.658334 45.878644,46.658203 0 0 1 -45.878779,46.658339 45.878644,46.658203 0 0 1 -7.707054,-0.66987 55.523813,55.902863 0 0 0 31.538003,9.91452 55.523813,55.902863 0 0 0 55.52396,-55.902989 55.523813,55.902863 0 0 0 -55.52396,-55.902991 z" />
</svg>
