<?xml version="1.0" encoding="UTF-8" standalone="no"?>
<svg xmlns:inkscape="http://www.inkscape.org/namespaces/inkscape" xmlns:sodipodi="http://sodipodi.sourceforge.net/DTD/sodipodi-0.dtd" xmlns="http://www.w3.org/2000/svg" xmlns:svg="http://www.w3.org/2000/svg" width="153.16499mm" height="157.17288mm" viewBox="0 0 160.85322 165.06228" version="1.1" id="svg5">
  <defs id="defs2"></defs>
  <path id="path111" style="fill:#066372;fill-opacity:1;stroke-width:0.264583" d="M 80.426614,0 A 80.426666,82.531281 0 0 0 0,82.531398 80.426666,82.531281 0 0 0 80.426614,165.06228 80.426666,82.531281 0 0 0 160.68424,87.165738 59.376431,61.640579 0 0 1 101.477,144.17157 59.376431,61.640579 0 0 1 42.100273,82.531398 59.376431,61.640579 0 0 1 101.477,20.890715 59.376431,61.640579 0 0 1 160.83359,80.962498 80.426666,82.531281 0 0 0 80.426614,0 Z m 80.257626,87.165738 a 59.376431,61.640579 0 0 0 0.16898,-4.63434 80.426666,82.531281 0 0 1 -0.16898,4.63434 z"></path>
  <path id="path1152" style="fill:#fb7e01;fill-opacity:1;stroke-width:0.294812" d="m 102.48914,34.057608 a 48.144745,48.473419 0 0 0 -27.346649,8.59689 39.78141,40.457367 0 0 1 6.682793,-0.58084 39.78141,40.457367 0 0 1 39.781546,40.45748 39.78141,40.457367 0 0 1 -39.781546,40.457482 39.78141,40.457367 0 0 1 -6.682793,-0.58084 48.144745,48.473419 0 0 0 27.346649,8.59689 48.144745,48.473419 0 0 0 48.14486,-48.473532 48.144745,48.473419 0 0 0 -48.14486,-48.47353 z"></path>
</svg>
